#!OML:ASF I:\Random Stuff\random\construction\7_22_03\Session 2\subj1.ASF
:FULLY-SPECIFIED
:DEGREES
485
root 0.0796466 17.7463 -0.307288 -3.43027 73.1928 -9.17503
lowerback 0.563882 0.945891 1.18339
upperback -3.17566 1.39049 1.83507
thorax -3.59936 0.705765 1.17301
lowerneck -24.3901 0.780014 1.61505
upperneck 26.3931 0.156764 1.55343
head 12.8872 0.529032 0.375562
rclavicle -1.8313e-014 2.38542e-015
rhumerus -0.781365 28.9678 -79.7013
rradius 124.12
rwrist -18.7271
rhand -33.7704 27.9976
rfingers 7.12502
rthumb -6.95798 -1.86801
lclavicle -1.8313e-014 2.38542e-015
lhumerus -35.446 -12.74 96.4362
lradius 29.7993
lwrist 28.4166
lhand -20.7003 59.0862
lfingers 7.12502
lthumb 5.66368 -271.01
rfemur 0.642968 5.78349 21.9538
rtibia 2.38542e-015
rfoot -3.0257 -14.585
rtoes -13.8193
lfemur -8.9339 -20.3685 -12.7379
ltibia 18.3442
lfoot -14.2679 17.9233
ltoes -28.8606
486
root 0.0746877 17.7461 -0.308397 -3.66951 73.2121 -9.3757
lowerback 0.651315 0.957685 1.27407
upperback -3.17531 1.4106 1.83336
thorax -3.6466 0.712869 1.1182
lowerneck -24.4289 0.761683 1.65584
upperneck 26.4874 0.128367 1.50749
head 12.9334 0.516144 0.346985
rclavicle 5.96665e-015 3.43897e-014
rhumerus -0.953914 29.0746 -79.8229
rradius 124.14
rwrist -18.8203
rhand -33.9636 27.5714
rfingers 7.12502
rthumb -7.1444 -2.288
lclavicle 5.96665e-015 3.43897e-014
lhumerus -35.4631 -12.9998 96.6364
lradius 30.2885
lwrist 28.4853
lhand -20.5964 59.0815
lfingers 7.12502
lthumb 5.76405 -271.017
rfemur 0.677258 5.75925 22.0215
rtibia 3.18055e-015
rfoot -3.00546 -14.5964
rtoes -13.7927
lfemur -8.94226 -20.41 -12.6889
ltibia 18.4299
lfoot -14.3527 17.954
ltoes -28.9582
487
root 0.0690074 17.7436 -0.30398 -4.20553 73.2202 -9.87619
lowerback 0.758028 0.945998 1.36894
upperback -3.18034 1.40191 1.8675
thorax -3.71091 0.706171 1.0987
lowerneck -24.4786 0.769981 1.72281
upperneck 26.5929 0.11712 1.49411
head 12.9868 0.518478 0.329887
rclavicle 3.81107e-015 4.17448e-015
rhumerus -1.15575 29.1576 -80.0092
rradius 124.105
rwrist -18.8605
rhand -33.9801 27.6408
rfingers 7.12502
rthumb -7.16035 -2.2181
lclavicle 3.81107e-015 4.17448e-015
lhumerus -35.4315 -13.1274 96.7639
lradius 30.6874
lwrist 28.4505
lhand -20.4621 58.9694
lfingers 7.12502
lthumb 5.89369 -271.133
rfemur 0.734255 5.74079 22.2006
rtibia 4.77083e-015
rfoot -3.06954 -14.6089
rtoes -13.2205
lfemur -8.9559 -20.5242 -12.5145
ltibia 18.5344
lfoot -14.351 18.0517
ltoes -29.2565
488
root 0.063243 17.7417 -0.292859 -5.04683 73.185 -10.6638
lowerback 0.888603 0.9411 1.46492
upperback -3.1743 1.4048 1.94601
thorax -3.77861 0.706048 1.12353
lowerneck -24.5499 0.778896 1.78417
upperneck 26.7176 0.115658 1.45689
head 13.0523 0.521396 0.306448
rclavicle -9.28697e-015 -6.55989e-015
rhumerus -1.35652 29.2681 -80.1894
rradius 123.955
rwrist -18.895
rhand -34.1053 28.6175
rfingers 7.12502
rthumb -7.2812 -1.23724
lclavicle -9.28697e-015 -6.55989e-015
lhumerus -35.3943 -13.2499 96.8885
lradius 31.0509
lwrist 28.3913
lhand -20.4556 58.7178
lfingers 7.12502
lthumb 5.90001 -271.384
rfemur 0.825246 5.75628 22.4872
rtibia 2.38542e-015
rfoot -3.26593 -14.569
rtoes -11.2726
lfemur -8.92746 -20.5384 -12.2259
ltibia 18.6216
lfoot -14.3676 18.0625
ltoes -29.0302
489
root 0.0588184 17.7451 -0.287066 -5.46204 73.1646 -11.0602
lowerback 0.950472 0.954253 1.52074
upperback -3.17012 1.42725 1.98185
thorax -3.80929 0.716168 1.12725
lowerneck -24.6121 0.762197 1.83104
upperneck 26.836 0.0983486 1.37293
head 13.1134 0.508964 0.264096
rclavicle 4.09683e-015 6.36111e-015
rhumerus -1.4955 29.371 -80.2975
rradius 123.867
rwrist -18.9976
rhand -34.2088 29.159
rfingers 7.12502
rthumb -7.38108 -0.69224
lclavicle 4.09683e-015 6.36111e-015
lhumerus -35.4214 -13.5362 97.1071
lradius 31.4981
lwrist 28.5118
lhand -20.4196 58.6747
lfingers 7.12502
lthumb 5.9347 -271.428
rfemur 0.858417 5.76487 22.6156
rtibia 3.97569e-015
rfoot -3.50699 -14.5121
rtoes -8.50494
lfemur -8.96255 -20.4617 -12.0744
ltibia 18.7152
lfoot -14.4779 17.9854
ltoes -28.6765
